<svg width="628" height="651" viewBox="0 0 628 651" fill="none" xmlns="http://www.w3.org/2000/svg">
<path d="M344.794 47.5782C333.785 39.0159 328.281 34.7347 322.203 33.089C316.84 31.637 311.187 31.637 305.824 33.089C299.746 34.7347 294.242 39.0159 283.233 47.5782L70.7108 212.873C56.5045 223.923 49.4014 229.447 44.2841 236.366C39.7512 242.495 36.3744 249.399 34.3196 256.74C32 265.027 32 274.026 32 292.023V518.728C32 553.827 32 571.376 38.8306 584.782C44.8389 596.574 54.4262 606.161 66.2182 612.169C79.624 619 97.1732 619 132.272 619H194.941C203.716 619 208.103 619 211.455 617.292C214.403 615.79 216.799 613.393 218.301 610.445C220.009 607.094 220.009 602.707 220.009 593.932V387.122C220.009 369.573 220.009 360.798 223.424 354.096C226.429 348.199 231.222 343.406 237.118 340.402C243.821 336.986 252.596 336.986 270.145 336.986H357.882C375.432 336.986 384.206 336.986 390.909 340.402C396.805 343.406 401.599 348.199 404.603 354.096C408.018 360.798 408.018 369.573 408.018 387.122V593.932C408.018 602.707 408.018 607.094 409.726 610.445C411.228 613.393 413.625 615.79 416.573 617.292C419.924 619 424.311 619 433.086 619H495.756C530.854 619 548.403 619 561.809 612.169C573.601 606.161 583.188 596.574 589.197 584.782C596.027 571.376 596.027 553.827 596.027 518.728V292.023C596.027 274.026 596.027 265.027 593.708 256.74C591.653 249.399 588.276 242.495 583.743 236.366C578.626 229.447 571.523 223.923 557.316 212.874L344.794 47.5782Z" stroke="white" stroke-width="62.6697" stroke-linecap="round" stroke-linejoin="round"/>
</svg>
