<svg width="628" height="628" viewBox="0 0 628 628" fill="none" xmlns="http://www.w3.org/2000/svg">
<path d="M219.762 314.014H81.8887C64.3395 314.014 55.5649 314.014 48.8621 317.429C42.966 320.433 38.1724 325.227 35.1682 331.123C31.7529 337.826 31.7529 346.6 31.7529 364.149V545.891C31.7529 563.441 31.7529 572.215 35.1682 578.918C38.1724 584.814 42.966 589.608 48.8621 592.612C55.5649 596.027 64.3395 596.027 81.8887 596.027H219.762M219.762 596.027H407.771M219.762 596.027L219.762 207.475C219.762 189.926 219.762 181.151 223.177 174.449C226.181 168.552 230.975 163.759 236.871 160.755C243.574 157.339 252.349 157.339 269.898 157.339H357.635C375.184 157.339 383.959 157.339 390.662 160.755C396.558 163.759 401.352 168.552 404.356 174.449C407.771 181.151 407.771 189.926 407.771 207.475V596.027M407.771 596.027H545.644C563.194 596.027 571.968 596.027 578.671 592.612C584.567 589.608 589.361 584.814 592.365 578.918C595.78 572.215 595.78 563.441 595.78 545.891V82.1358C595.78 64.5866 595.78 55.812 592.365 49.1091C589.361 43.2131 584.567 38.4195 578.671 35.4153C571.968 32 563.194 32 545.644 32H457.907C440.358 32 431.583 32 424.88 35.4153C418.984 38.4195 414.191 43.2131 411.186 49.1091C407.771 55.812 407.771 64.5866 407.771 82.1358V188.674" stroke="white" stroke-width="62.6697" stroke-linecap="round" stroke-linejoin="round"/>
</svg>
