<svg width="628" height="631" viewBox="0 0 628 631" fill="none" xmlns="http://www.w3.org/2000/svg">
<path d="M439.424 473.445L596.125 315.786M596.125 315.786L439.424 158.127M596.125 315.786H220.042M314.063 473.445C314.063 502.768 314.063 517.43 310.859 529.46C302.165 562.104 276.822 587.602 244.376 596.349C232.42 599.572 217.847 599.572 188.701 599.572H173.031C129.223 599.572 107.319 599.572 90.0406 592.371C67.0029 582.77 48.6995 564.355 39.1569 541.177C32 523.793 32 501.755 32 457.679V173.893C32 129.817 32 107.779 39.1569 90.3952C48.6995 67.2167 67.0029 48.8015 90.0407 39.2006C107.319 32 129.223 32 173.031 32H188.701C217.847 32 232.42 32 244.376 35.2233C276.822 43.9702 302.165 69.4681 310.859 102.112C314.063 114.142 314.063 128.803 314.063 158.127" stroke="#343F42" stroke-width="62.6806" stroke-linecap="round" stroke-linejoin="round"/>
</svg>
