<svg width="565" height="628" viewBox="0 0 565 628" fill="none" xmlns="http://www.w3.org/2000/svg">
<path d="M188.657 267.011L251.326 329.681L392.333 188.674M533.34 596.027V182.407C533.34 129.76 533.34 103.436 523.094 83.3274C514.081 65.6393 499.701 51.2584 482.012 42.2459C461.904 32 435.58 32 382.933 32H182.39C129.742 32 103.418 32 83.3098 42.2459C65.6217 51.2584 51.2408 65.6393 42.2283 83.3274C31.9824 103.436 31.9824 129.76 31.9824 182.407V596.027L118.153 533.358L196.49 596.027L282.661 533.358L368.832 596.027L447.169 533.358L533.34 596.027Z" stroke="white" stroke-width="62.6697" stroke-linecap="round" stroke-linejoin="round"/>
</svg>
